<svg xmlns="http://www.w3.org/2000/svg" width="512" height="512">
  <style>
    .hidden {
      display: none;
    }

    .text {
      font-weight: bold;
      font-family: 'Courier New', Courier, monospace;
      font-size: 3rem;
    }

    #face {
      fill: #ecbb13;
    }

    #centerCircle {
      fill: #141619;
      fill-opacity: 0.85;
    }

    #velocityText {
      font-size: 9rem;
      fill: #ecbb13;
      font-weight: bold;
      text-anchor: middle;
      dominant-baseline: middle;
    }

    .velocityLegend {
      fill: white;
      font-size: 1.5em;
      font-weight: bold;
      text-anchor: middle;
    }

    #directionIndicator {
      fill: #eb7b18;
      transform-origin: 50% 50%;
      transform: rotate(144deg);
    }
  </style>
  <defs>
    <path id="hash" d="M 250 3 L 256 29 L 262 3 Z" fill="black" />
    <mask id="hash-mask">
      <circle cx="256" cy="256" r="240" stroke="white" stroke-width="32px" />

      <g>
        <text x="243" y="30" fill="black" class="text">
          N
        </text>
        <text x="483" y="269" fill="black" class="text">
          E
        </text>
        <text x="243" y="509" fill="black" class="text">
          S
        </text>
        <text x="4" y="269" fill="black" class="text">
          W
        </text>

        <use href="#hash" transform="rotate(22.5, 256, 256)" />
        <use href="#hash" transform="rotate(45, 256, 256)" />
        <use href="#hash" transform="rotate(67.5, 256, 256)" />
        <use href="#hash" transform="rotate(112.5, 256, 256)" />
        <use href="#hash" transform="rotate(135, 256, 256)" />
        <use href="#hash" transform="rotate(157.5, 256, 256)" />
        <use href="#hash" transform="rotate(202.5, 256, 256)" />
        <use href="#hash" transform="rotate(225, 256, 256)" />
        <use href="#hash" transform="rotate(247.5, 256, 256)" />
        <use href="#hash" transform="rotate(292.5, 256, 256)" />
        <use href="#hash" transform="rotate(315, 256, 256)" />
        <use href="#hash" transform="rotate(337.5, 256, 256)" />
      </g>
    </mask>
  </defs>

  <path id="directionIndicator" d="M 258 35 L 260 256 L 314 314 L 256 480 L 197 314 L 252 256 L 254 35 Z" />

  <circle id="face" cx="256" cy="256" r="256" mask="url(#hash-mask)" />

  <circle id="centerCircle" cx="256" cy="256" r="82.9" />

  <text id="velocityText" x="256" y="266">
    7
  </text>
  <text class="velocityLegend" x="256" y="325">
    144°
  </text>
</svg>